<svg width="21" height="20" viewBox="0 0 21 20" fill="none" xmlns="http://www.w3.org/2000/svg">
<mask id="mask0_48_102" style="mask-type:alpha" maskUnits="userSpaceOnUse" x="0" y="0" width="21" height="20">
<rect x="0.537109" width="20" height="20" fill="#D9D9D9"/>
</mask>
<g mask="url(#mask0_48_102)">
<path d="M8.66212 18.3333L7.24545 15.8333H4.49545L2.62045 12.5L4.03712 9.99999L2.62045 7.49999L4.49545 4.16666H7.24545L8.66212 1.66666H12.4121L13.8288 4.16666H16.5788L18.4538 7.49999L17.0371 9.99999L18.4538 12.5L16.5788 15.8333H13.8288L12.4121 18.3333H8.66212ZM13.8288 9.16666H15.6205L16.5371 7.49999L15.6205 5.83332H13.8288L12.8913 7.49999L13.8288 9.16666ZM9.66212 11.6667H11.4121L12.3496 9.99999L11.4121 8.33332H9.66212L8.72462 9.99999L9.66212 11.6667ZM9.66212 6.66666H11.4121L12.3705 4.97916L11.433 3.33332H9.64129L8.70379 4.97916L9.66212 6.66666ZM5.47462 9.16666H7.24545L8.18295 7.49999L7.24545 5.83332H5.47462L4.53712 7.49999L5.47462 9.16666ZM5.47462 14.1667H7.24545L8.18295 12.5L7.24545 10.8333H5.45379L4.53712 12.5L5.47462 14.1667ZM9.64129 16.6667H11.433L12.3705 15.0208L11.4121 13.3333H9.66212L8.70379 15.0208L9.64129 16.6667ZM13.8288 14.1667H15.5996L16.5371 12.5L15.5996 10.8333H13.8288L12.8913 12.5L13.8288 14.1667Z" fill="#2A2A2A"/>
</g>
</svg>
